<svg width="30" height="40" viewBox="0 0 30 40" fill="none" xmlns="http://www.w3.org/2000/svg">
<path d="M13 38C13 39.1046 13.8954 40 15 40C16.1046 40 17 39.1046 17 38L13 38ZM16.4142 0.585786C15.6332 -0.195262 14.3668 -0.195262 13.5858 0.585786L0.857865 13.3137C0.0768168 14.0948 0.0768168 15.3611 0.857865 16.1421C1.63891 16.9232 2.90524 16.9232 3.68629 16.1421L15 4.82843L26.3137 16.1421C27.0948 16.9232 28.3611 16.9232 29.1421 16.1421C29.9232 15.3611 29.9232 14.0948 29.1421 13.3137L16.4142 0.585786ZM17 38L17 2L13 2L13 38L17 38Z" fill="#1E1E1E"/>
</svg>
